<?xml version="1.0" standalone="no"?>
<!DOCTYPE svg PUBLIC "-//W3C//DTD SVG 20010904//EN"
 "http://www.w3.org/TR/2001/REC-SVG-20010904/DTD/svg10.dtd">
<svg version="1.0" xmlns="http://www.w3.org/2000/svg"
 width="512.000000pt" height="512.000000pt" viewBox="0 0 512.000000 512.000000"
 preserveAspectRatio="xMidYMid meet">

<g transform="translate(0.000000,512.000000) scale(0.100000,-0.100000)"
fill="#000000" stroke="none">
<path d="M708 5104 c-325 -59 -573 -283 -675 -611 l-28 -88 -3 -1804 c-3
-2002 -6 -1906 63 -2064 117 -272 321 -444 607 -512 l108 -25 1780 0 1780 0
105 25 c57 13 134 38 170 54 237 108 408 310 482 571 17 62 18 148 18 1910 l0
1845 -28 88 c-95 306 -307 513 -612 599 l-80 23 -1805 2 c-1507 1 -1818 -1
-1882 -13z m327 -114 c-19 -20 -39 -30 -59 -30 -17 -1 -64 -7 -103 -14 -40 -7
-73 -11 -73 -9 0 2 37 22 82 43 62 30 94 40 132 40 l50 0 -29 -30z m564 -18
c195 -100 264 -166 572 -540 89 -109 185 -221 213 -249 27 -29 46 -53 41 -53
-6 0 -127 90 -270 201 -522 404 -696 509 -821 496 -104 -11 -205 -81 -251
-175 -27 -54 -28 -55 -31 -27 -6 50 17 212 38 269 11 29 37 70 57 91 l36 37
166 -4 166 -3 84 -43z m-1139 -100 c-75 -78 -142 -198 -189 -337 -37 -108 -41
-91 -6 28 31 107 98 253 133 291 24 25 109 85 122 86 3 0 -24 -31 -60 -68z
m2025 -69 c210 -43 320 -79 500 -167 285 -140 526 -296 680 -441 67 -64 58
-59 -125 61 -245 161 -441 263 -633 329 -104 37 -272 75 -329 75 -25 0 -63 21
-163 91 -147 102 -152 98 70 52z m-1984 -74 c-42 -88 -112 -273 -138 -369 -27
-101 -24 -325 5 -404 26 -69 29 -159 6 -196 l-15 -25 8 25 c13 41 6 100 -22
180 -66 191 -30 453 102 740 28 63 80 136 89 127 1 -1 -14 -36 -35 -78z m291
-45 c86 -29 176 -129 252 -281 47 -94 46 -107 -1 -23 -48 86 -174 212 -244
245 -65 30 -88 31 -138 6 -36 -19 -144 -126 -177 -177 -32 -48 -25 -15 10 53
40 76 100 140 161 172 47 25 76 26 137 5z m-6 -256 c-30 -60 -31 -67 -30 -193
0 -113 4 -141 27 -211 15 -44 44 -108 66 -141 71 -111 115 -142 381 -280 245
-126 480 -252 480 -258 0 -2 -71 29 -158 69 -87 40 -245 108 -352 150 -245 96
-291 118 -365 171 -106 75 -209 208 -261 336 -78 191 36 416 212 419 l31 0
-31 -62z m2069 -27 l160 -6 60 -39 c144 -92 215 -149 204 -162 -6 -7 -17 -33
-24 -57 -21 -69 -7 -108 64 -182 67 -70 78 -107 41 -140 -44 -40 -107 25 -69
71 6 8 7 14 2 14 -15 0 -60 -53 -71 -85 -8 -24 -11 -26 -11 -9 -1 12 6 41 14
64 22 62 19 119 -7 147 -12 13 -28 23 -37 23 -12 0 -12 -3 -3 -12 21 -21 13
-59 -29 -137 -23 -42 -43 -78 -45 -80 -5 -6 -167 90 -219 131 -27 22 -146 132
-264 246 l-215 207 70 6 c99 8 196 8 379 0z m-1412 -39 c44 -17 138 -64 210
-106 96 -54 229 -114 482 -216 358 -145 584 -224 992 -346 127 -38 230 -70
229 -72 -7 -7 -621 152 -739 191 -372 125 -886 350 -1203 527 -38 22 -95 44
-125 49 l-54 10 65 -3 c42 -2 93 -14 143 -34z m1972 -251 c-4 -10 79 -100 272
-293 l278 -278 -116 0 c-116 0 -117 0 -227 46 l-110 46 24 45 c13 25 24 56 24
68 0 31 -20 85 -32 85 -5 0 -7 -4 -3 -10 9 -14 -19 -72 -46 -95 -20 -17 -20
-15 4 13 19 24 27 45 27 73 0 47 -7 61 -67 143 -33 45 -43 67 -40 86 l5 25
-20 -25 c-13 -16 -18 -35 -16 -56 2 -18 0 -30 -4 -28 -15 10 -8 75 13 117 18
35 20 46 11 72 l-11 30 20 -24 c11 -13 17 -31 14 -40z m-2853 -102 c-2 -13 -2
-55 -1 -94 4 -117 2 -177 -6 -243 -7 -56 -5 -66 14 -92 26 -36 26 -40 2 -40
-11 0 -34 14 -51 32 -35 35 -35 41 -4 156 16 59 16 68 1 140 -21 97 -21 100 3
140 23 37 47 38 42 1z m1690 -150 c230 -86 421 -142 658 -194 140 -31 262 -58
270 -60 8 -3 5 4 -7 14 -40 34 -25 33 23 -1 41 -29 55 -33 132 -39 48 -3 78
-7 67 -8 -13 -2 -7 -7 20 -16 34 -11 -50 -13 -567 -14 l-607 -1 -15 53 c-24
87 -76 283 -76 290 0 12 16 8 102 -24z m-1752 -308 c0 -18 -289 -132 -333
-131 -7 1 42 23 108 49 66 27 140 58 165 69 50 24 60 26 60 13z m139 -45 c36
-19 99 -89 106 -118 2 -13 12 -79 20 -148 44 -353 151 -839 224 -1010 l36 -85
2 75 c6 205 37 560 42 480 1 -21 64 -180 71 -180 9 0 53 170 106 407 l48 211
19 -41 c19 -41 20 -41 27 -17 5 14 16 93 25 175 9 83 18 162 21 177 l5 26 62
-28 c62 -28 65 -33 51 -79 -6 -21 -5 -23 12 -17 10 4 40 10 66 13 44 5 57 0
188 -66 78 -40 143 -71 145 -69 3 2 -13 30 -35 63 -22 33 -38 60 -37 62 2 1
38 -9 82 -21 249 -73 445 -182 593 -329 l64 -62 17 21 17 22 99 -64 c54 -35
128 -79 164 -98 61 -32 481 -179 481 -169 0 3 -43 50 -95 105 -183 193 -255
288 -401 533 -17 28 -38 62 -48 77 -16 25 -4 21 150 -48 261 -116 321 -151
507 -290 34 -26 47 -31 47 -20 0 18 -143 300 -185 366 -16 25 -42 62 -58 83
l-29 37 57 0 c66 0 105 -20 229 -117 94 -74 286 -251 286 -263 0 -4 -21 -21
-47 -36 -56 -32 -125 -85 -119 -91 2 -3 52 12 111 32 l107 37 41 -41 c40 -39
41 -41 22 -55 -19 -14 -19 -15 9 -13 62 4 31 -19 -52 -39 -119 -29 -256 -89
-301 -133 -30 -29 -33 -35 -18 -39 10 -2 29 3 42 12 13 9 26 16 29 16 3 0 -8
-28 -24 -62 -46 -98 -70 -209 -77 -348 -5 -114 -4 -130 16 -176 25 -57 93
-128 161 -168 44 -25 44 -26 15 -25 -16 0 -52 4 -78 8 -72 12 -42 -6 47 -29
125 -32 270 -22 441 31 78 23 106 42 88 60 -8 8 -26 6 -67 -10 -31 -12 -59
-21 -62 -21 -4 0 16 20 43 45 56 49 108 141 144 250 33 97 33 241 2 340 -28
88 -83 162 -148 197 -57 32 -43 35 58 13 89 -19 119 -42 158 -121 42 -84 50
-189 24 -295 -22 -91 -12 -101 14 -14 15 46 21 94 21 154 0 244 -109 364 -318
349 -51 -3 -61 -1 -65 13 -4 13 5 18 41 23 84 11 151 7 190 -13 38 -20 91 -70
110 -106 19 -34 13 6 -7 51 -43 94 -149 124 -316 89 -29 -6 -31 -5 -45 42 -7
26 -14 52 -14 57 -1 12 184 74 245 82 72 10 114 -9 157 -69 36 -51 37 -51 40
-24 2 16 -1 42 -7 59 -6 17 -9 33 -6 36 3 3 29 -46 59 -109 47 -100 75 -177
102 -284 7 -28 8 -27 15 20 4 28 8 141 8 253 l1 203 28 -19 27 -20 -7 -163
c-25 -598 -72 -1068 -124 -1249 -20 -69 -85 -200 -129 -260 -49 -66 -192 -202
-255 -242 -258 -165 -656 -283 -1099 -328 -140 -14 -444 -13 -555 2 l-91 12
75 7 c41 4 143 12 225 19 515 38 986 122 1232 217 77 30 108 48 143 84 25 25
63 52 83 58 33 11 51 31 28 31 -25 0 -70 55 -91 111 -31 83 -74 124 -145 140
-49 11 -75 10 -208 -10 -283 -42 -263 -40 -242 -25 18 14 18 14 -1 14 -10 0
-43 -16 -73 -36 -100 -67 -209 -104 -309 -104 -26 0 -110 16 -186 35 -111 28
-157 35 -225 34 -68 -2 -78 -3 -46 -9 52 -9 54 -9 -257 -20 -330 -11 -360 -20
-404 -125 -24 -59 -21 -202 6 -254 l20 -41 -77 36 c-296 134 -574 345 -735
558 -69 92 -103 155 -134 251 l-23 70 -48 -3 c-60 -3 -121 19 -159 59 -16 17
-60 51 -99 76 -167 109 -347 272 -423 385 -51 75 -100 185 -118 266 -55 248
84 561 302 680 67 36 83 38 123 18z m1538 -94 c59 -54 162 -143 229 -198 198
-165 293 -235 560 -411 38 -25 -40 7 -106 44 -251 140 -652 436 -815 602 l-59
61 41 0 c39 0 50 -7 150 -98z m-172 38 l50 -51 -45 16 c-59 21 -158 41 -242
50 -37 4 -73 13 -79 21 -10 12 10 14 128 14 l139 0 49 -50z m2010 13 c72 -4
144 -7 162 -6 27 2 39 -6 79 -50 44 -49 108 -136 150 -202 15 -24 12 -22 -21
11 -58 60 -108 73 -194 51 -36 -10 -103 -35 -149 -57 l-83 -39 -11 27 c-6 15
-37 84 -69 155 l-57 128 31 -5 c18 -3 91 -9 162 -13z m-2961 -195 c20 -234 53
-539 65 -600 6 -30 9 19 11 162 1 113 6 232 10 265 4 38 8 -38 8 -210 1 -148
-1 -281 -5 -294 -5 -21 -7 -20 -19 15 -31 92 -124 480 -135 563 -7 49 -16 88
-20 85 -4 -2 -20 -55 -35 -117 -47 -186 -40 -368 27 -696 17 -79 28 -145 26
-148 -6 -6 -99 380 -131 542 -37 188 -53 292 -71 445 -8 74 -18 145 -20 157
-6 25 11 28 175 31 l96 2 18 -202z m2137 84 c72 -57 160 -150 229 -242 18 -25
-29 16 -106 91 -118 116 -218 201 -300 257 -11 6 9 -1 42 -17 34 -17 95 -56
135 -89z m594 8 c158 -299 187 -354 181 -349 -4 4 -60 94 -125 200 -64 107
-126 207 -136 222 l-19 29 25 -4 c19 -2 34 -23 74 -98z m-1790 28 c112 -36
124 -42 175 -100 46 -52 45 -57 -3 -31 -18 9 -93 38 -167 63 -124 43 -135 49
-147 78 l-13 31 33 -6 c17 -3 73 -19 122 -35z m-1848 26 c-3 -3 -12 -4 -19 -1
-8 3 -5 6 6 6 11 1 17 -2 13 -5z m1143 -10 c38 -15 40 -19 40 -58 0 -22 3 -85
7 -138 4 -65 3 -98 -4 -98 -6 0 -14 16 -18 36 -3 20 -11 44 -16 53 -5 9 -18
54 -29 101 -12 47 -23 93 -26 103 -7 21 -4 21 46 1z m-1062 -133 c-46 -48 -84
-86 -86 -85 -10 6 45 92 87 135 34 35 53 48 65 43 13 -5 0 -24 -66 -93z m3955
-81 c-11 -10 -165 -61 -170 -56 -2 2 36 27 84 55 82 48 88 50 91 30 2 -12 0
-25 -5 -29z m810 -57 c17 -29 18 -55 18 -267 0 -230 -1 -237 -25 -283 -32 -64
-113 -175 -176 -243 l-50 -55 6 59 c5 45 15 71 44 112 l37 53 22 -22 23 -22
-4 50 c-2 42 3 63 37 130 37 75 40 85 40 170 0 147 -40 237 -114 251 -41 9
-39 30 4 38 21 4 43 18 57 36 29 37 56 35 81 -7z m-1123 -372 c19 -10 45 -36
57 -57 83 -145 -103 -287 -230 -175 -11 8 -32 16 -48 17 -36 2 -43 8 -35 29 4
12 10 13 24 6 18 -9 19 -6 18 42 -1 121 111 194 214 138z m380 -241 c13 -9 12
-12 -4 -25 -28 -22 -78 -20 -74 2 2 9 14 20 28 24 35 10 33 10 50 -1z m-272
-62 c4 -34 -27 -54 -58 -38 -21 11 -25 27 -14 55 5 11 16 15 38 13 25 -2 32
-8 34 -30z m-308 2 c0 -21 -27 -40 -59 -40 -25 0 -34 14 -26 40 9 29 85 29 85
0z m575 -62 c30 -13 34 -48 5 -48 -23 0 -72 21 -82 34 -18 26 31 35 77 14z
m-608 -42 c12 -4 32 -26 45 -48 27 -48 101 -103 161 -119 84 -23 197 6 268 69
31 27 43 31 83 29 l48 -2 -6 -33 c-7 -44 -81 -148 -134 -189 -59 -45 -139 -67
-222 -61 -133 10 -273 102 -300 197 -11 40 -13 150 -4 176 6 14 9 14 23 2 9
-8 26 -18 38 -21z m-3152 -26 c21 -22 37 -40 34 -40 -3 0 -23 18 -44 40 -21
22 -37 40 -34 40 3 0 23 -18 44 -40z m4307 -63 c-18 -18 -33 -42 -33 -52 -1
-19 -2 -19 -6 -1 -3 11 7 30 28 52 18 19 35 34 38 34 3 0 -9 -15 -27 -33z
m-4355 17 c-3 -3 -12 -4 -19 -1 -8 3 -5 6 6 6 11 1 17 -2 13 -5z m-37 -8 c0
-2 -8 -10 -17 -17 -16 -13 -17 -12 -4 4 13 16 21 21 21 13z m-219 -23 c13 -16
12 -17 -3 -4 -10 7 -18 15 -18 17 0 8 8 3 21 -13z m-29 -13 c14 -11 57 -70 96
-132 96 -154 138 -208 245 -317 152 -154 243 -205 369 -206 42 0 74 -4 71 -9
-10 -15 -165 1 -226 24 -96 36 -197 112 -324 243 -65 67 -153 154 -195 192
l-78 70 0 77 c0 43 4 78 9 78 4 0 20 -9 33 -20z m284 -17 c26 -114 41 -159 79
-238 94 -195 231 -305 416 -334 34 -6 63 -12 66 -14 11 -12 -71 -32 -132 -32
-58 0 -82 6 -139 33 -105 49 -214 143 -324 278 -46 57 -172 243 -172 254 0 4
22 10 48 14 28 3 67 19 93 35 55 37 57 37 65 4z m275 -62 c52 -35 108 -78 125
-97 30 -32 32 -38 37 -141 6 -121 16 -164 52 -216 l24 -36 -32 6 c-150 27
-279 125 -312 235 -25 83 -37 196 -30 271 7 63 8 67 25 55 10 -7 60 -42 111
-77z m-164 22 c-3 -10 -5 -2 -5 17 0 19 2 27 5 18 2 -10 2 -26 0 -35z m4090
15 c-3 -7 -5 -2 -5 12 0 14 2 19 5 13 2 -7 2 -19 0 -25z m-4364 15 c-7 -2 -19
-2 -25 0 -7 3 -2 5 12 5 14 0 19 -2 13 -5z m4474 -55 c-3 -8 -6 -5 -6 6 -1 11
2 17 5 13 3 -3 4 -12 1 -19z m-4260 -10 c-3 -8 -6 -5 -6 6 -1 11 2 17 5 13 3
-3 4 -12 1 -19z m4182 -44 c7 -26 10 -48 8 -51 -3 -2 -10 19 -17 46 -12 53
-29 60 -31 13 -2 -24 -2 -25 -6 -4 -5 24 13 55 27 47 4 -3 13 -26 19 -51z m68
4 c-3 -8 -6 -5 -6 6 -1 11 2 17 5 13 3 -3 4 -12 1 -19z m-4173 -148 c4 -17 1
-14 -12 10 -14 26 -17 48 -13 85 l5 50 6 -60 c4 -33 10 -71 14 -85z m-214
-119 c207 -210 322 -280 490 -298 l59 -6 -22 -29 -22 -30 -100 4 c-74 4 -121
12 -180 33 -111 38 -253 113 -365 194 l-95 68 -3 148 -3 148 43 -38 c24 -20
113 -108 198 -194z m4267 192 c-3 -10 -5 -4 -5 12 0 17 2 24 5 18 2 -7 2 -21
0 -30z m-3680 -98 c25 -121 61 -169 153 -202 l48 -17 -57 -23 c-73 -30 -97
-29 -131 5 -37 37 -59 114 -67 230 l-6 92 23 -8 c19 -7 26 -21 37 -77z m123 3
c12 -35 37 -91 56 -125 38 -71 32 -78 -42 -44 -65 30 -89 70 -109 183 -7 36
-6 37 27 41 18 2 36 5 39 5 4 1 16 -26 29 -60z m3547 30 c-3 -7 -5 -2 -5 12 0
14 2 19 5 13 2 -7 2 -19 0 -25z m-10 -60 c-3 -7 -5 -2 -5 12 0 14 2 19 5 13 2
-7 2 -19 0 -25z m272 -157 c1 -140 -6 -106 -11 54 -3 82 -2 119 3 90 4 -27 8
-92 8 -144z m90 99 l63 -75 -62 65 c-34 36 -66 74 -72 85 -13 24 -9 20 71 -75z
m-379 -33 c-6 -29 -36 -101 -65 -162 -59 -122 -131 -215 -235 -303 -65 -54
-65 -54 12 19 42 41 98 101 124 134 59 75 138 239 156 323 7 35 14 59 16 53 2
-7 -1 -35 -8 -64z m440 -91 c0 -19 0 -19 -21 0 -19 17 -83 105 -104 144 -4 8
22 -16 58 -55 36 -38 66 -79 67 -89z m-4847 -24 c128 -94 274 -174 387 -210
85 -28 195 -45 241 -37 l37 6 -24 -59 c-33 -82 -41 -191 -20 -264 24 -83 18
-94 -7 -13 l-23 70 -304 1 c-168 1 -315 2 -327 3 l-23 1 0 270 c0 149 2 270 5
270 3 0 29 -17 58 -38z m1037 -27 c9 -14 50 -63 93 -109 42 -47 77 -91 77 -99
0 -8 -10 -26 -21 -41 -16 -20 -20 -36 -16 -61 l5 -33 -56 26 c-154 71 -358 18
-432 -112 -17 -28 -30 -59 -30 -68 0 -10 -5 -18 -11 -18 -8 0 -10 28 -7 94 7
127 41 200 140 303 79 81 118 109 181 129 58 18 60 17 77 -11z m3593 -105
c-65 -60 -183 -154 -183 -147 0 3 50 46 111 97 61 51 114 102 117 113 4 15 7
17 10 7 3 -8 -19 -37 -55 -70z m193 46 c19 -13 21 -27 23 -156 2 -115 -2 -158
-20 -235 -12 -52 -18 -102 -15 -111 8 -20 21 -10 29 21 3 11 5 -7 4 -40 0 -33
-5 -68 -9 -77 -5 -11 -5 -18 2 -18 5 0 10 -12 10 -27 0 -26 -5 -29 -82 -51
-230 -64 -299 -139 -363 -393 -15 -57 -28 -105 -30 -107 -1 -1 -17 9 -34 24
-40 33 -79 110 -87 168 -9 62 26 172 71 226 19 23 35 49 35 58 0 12 -7 9 -23
-12 -20 -25 -26 -27 -45 -17 -38 20 -52 52 -52 116 0 84 42 144 101 145 21 0
35 -12 69 -61 23 -33 44 -58 47 -55 3 3 -13 32 -36 65 -22 34 -41 66 -41 71 0
19 48 60 71 60 31 0 93 -53 130 -113 23 -36 34 -47 37 -35 2 9 -2 26 -8 38 -9
16 -5 41 20 120 26 84 30 109 24 162 -12 122 22 207 96 237 35 14 53 13 76 -3z
m-2682 -139 c69 -39 106 -133 108 -274 1 -73 -2 -87 -25 -121 -82 -125 -299
-78 -367 79 -16 38 -22 71 -22 128 1 152 54 210 197 210 54 1 79 -4 109 -22z
m-529 -275 c50 -27 132 -68 184 -91 52 -23 108 -53 125 -66 47 -35 105 -56
166 -60 54 -3 110 -14 490 -101 313 -72 536 -96 705 -76 50 6 168 14 263 18
l172 7 0 -34 c0 -19 -7 -45 -16 -57 -19 -28 -94 -66 -201 -103 -69 -24 -99
-29 -180 -29 -174 0 -368 41 -653 137 -204 69 -207 70 -141 38 86 -40 382
-133 514 -160 180 -38 349 -43 505 -16 68 11 144 30 168 40 32 15 44 17 44 7
0 -49 -205 -119 -557 -191 -201 -41 -262 -44 -288 -15 -9 10 -34 25 -54 31
-20 7 -39 16 -42 22 -11 16 -91 27 -164 21 l-70 -6 -200 107 c-251 135 -392
226 -539 348 -11 9 40 -8 114 -39 171 -70 173 -71 124 -40 -23 14 -118 55
-210 92 -239 93 -315 136 -432 248 -51 49 -152 168 -152 179 0 3 53 -32 118
-78 64 -46 158 -106 207 -133z m2952 197 l63 -11 -1 -42 c0 -22 -4 -50 -9 -61
-5 -12 -6 2 -3 37 l6 57 -39 6 c-66 12 -110 23 -95 24 8 1 43 -4 78 -10z
m-3142 -164 c84 -83 189 -156 289 -199 42 -19 110 -62 166 -107 129 -103 222
-164 397 -260 81 -45 177 -98 213 -117 l65 -36 -49 -8 c-43 -6 -68 0 -225 53
-246 83 -266 97 -673 476 -204 190 -273 262 -301 314 -18 33 -17 33 14 -6 18
-22 65 -72 104 -110z m-376 124 c74 -16 133 -58 181 -131 97 -145 156 -178
268 -153 53 11 37 -13 -20 -30 -64 -19 -119 -19 -161 -1 -18 7 -64 49 -104 93
-80 89 -154 135 -243 151 -62 12 -139 1 -177 -23 -53 -35 -77 -110 -66 -209 7
-71 43 -119 101 -134 31 -8 33 -10 11 -11 -36 -1 -90 18 -118 43 -69 61 -69
213 1 306 29 40 75 68 146 91 66 21 112 23 181 8z m2969 -82 c-29 -23 -118
-76 -105 -61 10 10 120 82 127 83 3 0 -7 -10 -22 -22z m586 -51 c-3 -15 -8
-25 -11 -23 -2 3 -1 17 3 31 3 15 8 25 11 23 2 -3 1 -17 -3 -31z m-104 7 c14
-9 37 -27 53 -41 17 -16 27 -21 27 -12 0 7 3 11 6 7 3 -3 3 -11 -1 -17 -4 -6
-22 3 -48 25 -23 20 -52 38 -65 42 -32 8 -90 -21 -104 -52 -7 -16 -19 -25 -35
-25 -26 0 -99 -61 -108 -92 -4 -11 -9 -17 -12 -14 -3 3 4 21 16 40 23 37 77
76 104 76 9 0 21 9 27 21 14 25 68 59 95 59 11 0 32 -7 45 -17z m-3347 -66
c23 -24 59 -62 79 -84 51 -57 91 -77 162 -78 65 -1 63 1 127 -107 l40 -66 -15
-47 c-9 -25 -16 -58 -16 -73 0 -26 -2 -27 -39 -24 -48 5 -153 -22 -200 -50
-51 -31 -140 -117 -159 -153 -25 -49 -42 -126 -42 -193 0 -41 -4 -61 -10 -57
-6 4 -29 43 -51 88 -23 45 -50 92 -62 105 -11 12 -24 43 -28 70 -3 26 -12 81
-19 122 -15 92 -7 182 25 276 13 38 29 104 35 145 13 89 34 156 56 180 15 17
19 17 45 3 16 -8 48 -34 72 -57z m2750 23 c3 -11 1 -18 -4 -14 -5 3 -9 12 -9
20 0 20 7 17 13 -6z m24 -97 c-3 -10 -5 -2 -5 17 0 19 2 27 5 18 2 -10 2 -26
0 -35z m-330 -39 c36 -27 69 -71 60 -80 -4 -5 -107 94 -107 103 0 8 16 1 47
-23z m314 -12 c-6 -12 -12 -31 -12 -44 -1 -18 -2 -19 -6 -5 -5 19 16 81 24 73
3 -2 0 -13 -6 -24z m-2314 -24 c18 -19 41 -61 53 -98 21 -62 21 -71 10 -173
-14 -115 -30 -137 -42 -54 -12 87 -60 205 -118 294 l-22 32 34 15 c47 20 51
20 85 -16z m-950 0 c-3 -8 -6 -5 -6 6 -1 11 2 17 5 13 3 -3 4 -12 1 -19z
m3560 -70 c-2 -18 -4 -4 -4 32 0 36 2 50 4 33 2 -18 2 -48 0 -65z m-3507 -13
c13 -14 21 -25 18 -25 -2 0 -15 11 -28 25 -13 14 -21 25 -18 25 2 0 15 -11 28
-25z m2265 -30 c-26 -30 -56 -55 -66 -55 -20 0 -345 55 -399 68 -24 6 37 11
190 15 183 6 288 14 318 26 2 0 -18 -24 -43 -54z m-2950 15 c10 -11 16 -20 13
-20 -3 0 -13 9 -23 20 -10 11 -16 20 -13 20 3 0 13 -9 23 -20z m3920 0 c10
-11 16 -20 13 -20 -3 0 -13 9 -23 20 -10 11 -16 20 -13 20 3 0 13 -9 23 -20z
m-3967 -36 c1 -16 -4 -58 -12 -94 l-14 -65 -1 98 c-1 75 2 98 12 95 6 -3 13
-18 15 -34z m1835 -59 l77 -70 0 -58 c0 -45 -4 -59 -17 -64 -24 -9 -67 47
-104 137 -17 41 -39 92 -48 112 -22 46 -17 43 92 -57z m1414 63 c-3 -7 -5 -2
-5 12 0 14 2 19 5 13 2 -7 2 -19 0 -25z m-3130 -118 c6 -22 -19 -244 -34 -299
-5 -21 -7 -20 -25 11 -11 18 -34 65 -50 106 l-29 73 22 118 23 118 43 -51 c24
-28 46 -62 50 -76z m806 103 c-13 -2 -35 -2 -50 0 -16 2 -5 4 22 4 28 0 40 -2
28 -4z m707 -158 c12 -54 10 -60 -19 -50 -17 5 -21 15 -21 50 0 55 9 84 21 63
5 -8 13 -36 19 -63z m-1434 -67 c36 -26 44 -37 44 -63 0 -30 -4 -34 -40 -43
-60 -15 -72 -1 -61 68 5 30 7 58 4 63 -9 15 10 6 53 -25z m1271 -45 c-26 -45
-28 -128 -4 -184 20 -48 79 -113 142 -156 27 -19 41 -32 30 -29 -37 10 -200
25 -266 23 -108 -1 -148 38 -157 152 -4 67 -4 69 33 109 20 23 52 51 71 63 20
12 33 24 30 26 -9 9 -73 -36 -111 -78 -20 -23 -45 -60 -56 -83 -10 -22 -19
-35 -19 -28 0 27 40 90 87 134 47 44 123 92 109 69 -9 -14 -10 -14 44 3 25 8
55 15 67 15 l22 1 -22 -37z m-1197 -32 c0 -28 -4 -52 -9 -55 -5 -3 -8 19 -7
49 1 68 16 73 16 6z m1398 25 c56 -29 164 -115 157 -126 -3 -5 4 -6 15 -3 19
5 27 -7 14 -20 -9 -9 -41 9 -103 60 -30 25 -81 58 -113 74 -32 16 -58 31 -58
34 0 13 45 3 88 -19z m-1238 -131 c0 -21 -16 -32 -53 -38 l-38 -6 -24 56 c-14
30 -25 66 -25 79 0 23 4 21 70 -28 39 -29 70 -57 70 -63z m1808 59 c46 -62 36
-64 -11 -3 -21 27 -35 49 -30 49 4 -1 23 -21 41 -46z m-2075 -5 c16 -9 22 -9
25 0 6 18 41 12 52 -10 9 -16 14 -18 25 -9 11 9 18 3 34 -28 17 -34 18 -41 6
-46 -35 -13 -10 -22 50 -19 53 3 65 1 65 -12 0 -8 7 -15 15 -15 8 0 21 -13 30
-30 9 -17 11 -30 5 -30 -5 0 -10 -6 -10 -14 0 -17 -27 -28 -51 -21 -13 5 -16
1 -12 -14 5 -21 -35 -71 -58 -71 -6 0 3 13 20 29 17 16 31 31 31 33 0 2 -11
26 -24 54 -19 39 -21 50 -10 52 17 4 18 18 2 28 -7 4 -8 3 -4 -4 9 -14 1 -15
-23 -3 -10 6 -33 6 -52 2 -49 -11 -68 -1 -89 47 -19 41 -19 42 0 42 11 0 20 7
20 15 0 8 -5 15 -11 15 -5 0 -7 -4 -4 -10 9 -15 -6 -12 -45 10 -19 11 -29 19
-22 20 7 0 23 -5 35 -11z m686 -13 c37 -20 61 -58 61 -97 0 -21 8 -37 25 -51
48 -37 74 -124 50 -162 -8 -12 -17 -38 -20 -58 l-7 -38 -54 0 -54 0 -2 58 -2
57 -3 -57 c-5 -79 -23 -74 -23 6 0 62 -1 65 -34 85 -19 12 -37 28 -40 36 -3 8
-10 15 -16 15 -16 0 -100 59 -100 70 0 4 12 12 28 18 21 7 30 19 40 56 10 38
18 50 45 61 42 18 71 18 106 1z m1935 -5 c12 -19 -48 -72 -117 -105 -40 -19
-142 -58 -227 -87 -123 -41 -171 -53 -230 -55 l-75 -3 70 9 c86 11 141 31 317
112 151 69 190 95 167 109 -8 5 -27 9 -44 10 -27 2 -25 3 10 9 60 11 123 11
129 1z m-2610 -63 c19 -47 21 -61 11 -74 -11 -15 -15 -14 -45 13 -31 28 -32
32 -26 77 10 63 30 58 60 -16z m271 -8 l-14 -45 5 45 c7 48 15 71 21 54 2 -5
-4 -29 -12 -54z m2380 50 c11 -18 -20 -54 -80 -89 -80 -49 -296 -140 -384
-162 -86 -22 -211 -24 -318 -5 -39 7 -97 11 -127 8 -38 -3 -56 -1 -56 7 0 6
17 12 38 12 20 1 51 3 67 4 17 1 71 -4 120 -12 105 -17 160 -13 270 21 230 69
404 149 432 197 18 31 28 35 38 19z m1063 -7 c-26 -2 -71 -2 -100 0 -29 2 -8
3 47 3 55 0 79 -1 53 -3z m167 -4 l39 -11 -29 -15 c-17 -9 -38 -22 -47 -30
-15 -13 -18 -12 -31 13 l-15 28 -13 -42 c-7 -23 -18 -47 -26 -53 -10 -9 -13
-5 -13 23 0 38 22 76 54 88 28 12 35 12 81 -1z m-347 -6 c-10 -2 -26 -2 -35 0
-10 3 -2 5 17 5 19 0 27 -2 18 -5z m-784 -37 c17 -19 64 -90 105 -158 41 -68
81 -133 89 -145 l14 -23 -106 0 -107 0 -25 55 c-13 31 -24 67 -24 80 0 14 -4
25 -10 25 -16 0 -12 -35 10 -90 11 -28 20 -55 20 -60 0 -6 -44 -10 -104 -10
l-103 0 -11 33 -11 32 2 -32 3 -33 -453 0 c-249 0 -453 4 -453 8 0 5 5 23 11
39 8 25 19 33 55 42 84 21 157 23 243 7 100 -19 152 -20 252 -2 147 26 448
163 502 227 17 21 40 39 51 39 10 0 32 -15 50 -34z m-2362 -50 c11 -8 15 -20
11 -34 -4 -17 -13 -22 -39 -22 -29 0 -36 5 -54 40 -11 21 -20 51 -20 65 l0 26
43 -31 c23 -17 50 -37 59 -44z m3603 57 c19 -15 19 -15 -13 -9 -17 3 -44 1
-59 -5 -27 -10 -27 -10 -8 10 22 25 52 26 80 4z m-762 -38 c-119 -46 -188
-101 -221 -177 -10 -25 -42 -40 -42 -20 1 16 71 101 104 127 38 29 182 95 206
94 8 0 -13 -11 -47 -24z m-2163 -110 c32 -34 68 -43 205 -48 119 -5 259 -30
270 -48 15 -24 -11 -24 -87 -2 -49 14 -137 28 -215 35 -150 13 -185 27 -209
83 -8 19 -14 49 -13 67 0 30 1 29 13 -15 7 -26 23 -59 36 -72z m-645 28 c-10
-53 -19 -31 -10 24 5 26 10 40 13 30 2 -11 1 -35 -3 -54z m3666 22 c7 -13 3
-12 -10 5 -11 14 -21 30 -21 35 0 11 14 -7 31 -40z m-4047 3 c-10 -18 -19 -28
-21 -21 -5 15 15 53 28 53 5 0 2 -15 -7 -32z m134 -21 c34 -82 31 -83 -57 -32
-63 37 -70 58 -27 75 47 19 61 12 84 -43z m4012 49 c0 -3 -15 -15 -32 -27
l-33 -23 24 27 c22 24 41 35 41 23z m-3649 -102 c8 -9 2 -17 -21 -29 -18 -9
-33 -15 -34 -13 -35 49 -46 71 -46 93 l0 26 45 -32 c25 -18 51 -39 56 -45z
m-201 20 c0 -2 -9 0 -20 6 -11 6 -20 13 -20 16 0 2 9 0 20 -6 11 -6 20 -13 20
-16z m63 -5 c3 -12 11 -17 20 -13 22 8 41 -30 28 -55 -12 -21 -41 -36 -41 -21
0 6 -9 10 -20 10 -24 0 -58 59 -41 70 7 3 9 14 6 22 -5 12 -1 14 19 11 13 -3
26 -14 29 -24z m3093 -4 c5 -29 2 -38 -17 -55 -29 -24 -19 -26 22 -4 38 19 43
16 21 -14 -14 -19 -33 -24 -122 -33 -244 -26 -253 51 -14 115 49 13 92 24 96
25 4 1 10 -15 14 -34z m548 14 c-3 -5 -20 -7 -37 -4 -32 6 -145 -6 -182 -19
-11 -4 -6 1 10 10 46 27 225 38 209 13z m-3479 -49 c-4 -17 -9 -29 -12 -26 -3
2 -2 19 2 36 4 17 9 29 12 26 3 -2 2 -19 -2 -36z m282 18 c-3 -8 -6 -5 -6 6
-1 11 2 17 5 13 3 -3 4 -12 1 -19z m-507 -34 c33 -75 28 -79 -42 -40 -35 19
-64 40 -66 46 -4 10 51 39 76 40 7 0 22 -21 32 -46z m574 11 c16 -24 16 -29
-1 -80 -18 -53 -19 -55 -55 -55 -37 0 -38 1 -38 36 0 26 10 47 36 80 20 24 38
44 39 44 2 0 10 -11 19 -25z m3183 -17 c-3 -7 -5 -2 -5 12 0 14 2 19 5 13 2
-7 2 -19 0 -25z m-3484 -42 l-6 -28 -13 32 c-8 18 -14 40 -14 48 0 14 3 13 19
-3 14 -14 18 -28 14 -49z m-69 29 c3 -8 12 -15 20 -15 17 0 29 -42 14 -51 -9
-6 -8 -12 1 -23 11 -13 9 -15 -21 -14 -29 1 -37 6 -46 32 -9 22 -9 32 -1 37 7
4 8 12 5 18 -8 12 0 31 14 31 4 0 10 -7 14 -15z m-150 -42 c-8 -32 -24 -55
-24 -33 0 27 12 60 21 60 5 0 6 -12 3 -27z m953 -5 c-3 -7 -5 -2 -5 12 0 14 2
19 5 13 2 -7 2 -19 0 -25z m-858 -9 c14 -41 15 -39 -16 -39 -75 1 -94 26 -40
53 43 21 44 21 56 -14z m2537 10 c19 -16 18 -39 -2 -39 -22 0 -72 31 -79 48
-4 12 2 13 31 9 20 -3 42 -11 50 -18z m-1458 -24 c-6 -19 -15 -32 -20 -29 -7
5 17 64 26 64 2 0 -1 -16 -6 -35z"/>
<path d="M445 3247 c-28 -13 -27 -13 31 -9 73 5 126 -18 167 -72 l27 -35 -52
-28 c-98 -52 -145 -160 -136 -313 11 -172 100 -268 278 -300 40 -7 74 -20 89
-33 22 -20 23 -21 13 -2 -15 29 -51 60 -100 84 -58 29 -82 71 -82 142 0 50 5
63 41 115 40 59 40 59 36 134 -3 41 -14 100 -26 130 -23 61 -81 142 -123 173
-34 25 -121 32 -163 14z m260 -189 c10 -24 20 -78 23 -120 5 -77 4 -78 -33
-133 -64 -92 -59 -193 11 -255 42 -36 27 -38 -42 -6 -117 54 -160 141 -152
303 7 118 32 173 102 221 27 17 54 32 61 32 7 0 21 -19 30 -42z"/>
<path d="M1580 3191 c-57 -15 -126 -48 -118 -57 2 -1 29 6 60 17 81 27 201 42
272 34 81 -10 313 -68 372 -94 85 -38 59 -12 -30 30 -169 79 -407 109 -556 70z"/>
<path d="M1733 3080 c-81 -19 -164 -90 -210 -180 -26 -51 -28 -63 -27 -165 0
-60 5 -120 10 -132 6 -16 9 5 10 75 3 214 102 327 305 347 l64 6 -59 -25 c-79
-33 -124 -71 -164 -137 -45 -75 -53 -107 -59 -239 -8 -189 36 -369 114 -459
19 -23 33 -44 31 -47 -3 -2 -33 14 -67 36 -70 46 -102 49 -56 6 44 -41 150
-91 235 -111 84 -20 340 -24 420 -7 l45 10 -45 2 c-25 1 -55 5 -68 8 -20 6
-17 9 26 24 62 22 130 82 164 144 48 90 62 157 63 304 0 168 -25 265 -88 336
-21 24 -36 44 -34 44 3 0 60 -25 127 -55 129 -58 150 -64 150 -40 0 18 -86 62
-267 138 -178 75 -244 94 -386 112 -130 16 -184 17 -234 5z m230 -199 c38 -41
39 -44 35 -102 -5 -63 -26 -97 -80 -125 -122 -64 -260 85 -188 204 32 52 76
74 139 69 49 -3 58 -8 94 -46z m-214 -232 c34 -12 37 -32 5 -37 -30 -4 -74 15
-74 33 0 18 25 19 69 4z m641 -10 c0 -12 -44 -29 -76 -29 -33 0 -31 28 4 36
15 3 32 7 37 8 15 4 35 -5 35 -15z m-366 -5 c22 -21 20 -40 -6 -58 -15 -11
-26 -12 -40 -5 -23 12 -24 55 0 68 23 14 28 14 46 -5z m347 -102 c15 -13 20
-25 15 -37 -5 -14 -14 -17 -48 -12 -46 6 -74 28 -65 51 9 22 69 21 98 -2z
m-552 -21 c14 -26 -16 -51 -68 -58 -45 -6 -71 8 -71 38 0 25 27 38 82 39 36 0
50 -4 57 -19z m531 -91 c22 -22 19 -61 -11 -121 -37 -73 -147 -146 -260 -170
-81 -17 -186 8 -262 65 -38 28 -77 95 -77 134 0 63 93 98 126 46 25 -37 68
-55 149 -61 86 -7 133 7 184 52 42 38 101 75 119 75 6 0 21 -9 32 -20z"/>
<path d="M3229 1921 c23 -32 26 -57 11 -97 -16 -42 -3 -41 14 1 21 50 20 88
-2 108 -31 28 -46 20 -23 -12z"/>
<path d="M4820 1006 c0 -8 5 -18 10 -21 6 -3 10 1 10 9 0 8 -4 18 -10 21 -5 3
-10 -1 -10 -9z"/>
<path d="M4670 951 c0 -5 5 -13 10 -16 6 -3 10 -2 10 4 0 5 -4 13 -10 16 -5 3
-10 2 -10 -4z"/>
<path d="M2122 1358 c-64 -12 -77 -31 -69 -103 6 -64 39 -131 68 -140 30 -10
111 4 132 22 24 22 23 115 -2 170 -18 38 -47 65 -68 62 -4 -1 -32 -6 -61 -11z
m100 -45 c18 -32 32 -132 21 -150 -5 -6 -19 -14 -33 -18 -24 -6 -25 -4 -26 39
-1 48 -30 136 -45 136 -5 0 -9 5 -9 10 0 6 17 10 38 10 31 0 41 -5 54 -27z
m-74 -36 c7 -15 15 -48 19 -75 4 -38 2 -51 -12 -62 -15 -13 -20 -11 -41 13
-38 45 -57 140 -32 165 16 16 48 -5 66 -41z"/>
</g>
</svg>
